<svg width="27" height="23" viewBox="0 0 27 23" fill="none" xmlns="http://www.w3.org/2000/svg">
<path d="M15.7556 9.52087C15.5298 9.52087 15.3467 9.70018 15.3467 9.92136V12.9132C15.3467 13.1344 15.5298 13.3137 15.7556 13.3137H24.7511C24.9769 13.3137 25.16 13.1344 25.16 12.9132V9.92136C25.16 9.70018 24.9769 9.52087 24.7511 9.52087H15.7556ZM21.2707 0.00106318C22.5153 0.0603343 23.411 0.307032 23.9769 0.829059C24.5374 1.34605 24.8256 2.0948 24.882 3.08475V5.92153C24.882 6.41919 24.4701 6.82262 23.962 6.82262C23.4539 6.82262 23.042 6.41919 23.042 5.92153L23.0435 3.13627C23.0134 2.62074 22.891 2.30302 22.7154 2.141C22.5452 1.98401 22.0275 1.84142 21.226 1.80219L3.57381 1.80151C2.84788 1.82909 2.37718 1.96682 2.14879 2.1628C1.97315 2.31352 1.84148 2.7277 1.84 3.44329L1.8359 19.367C1.90318 20.0632 2.05659 20.5265 2.25204 20.7584C2.40026 20.9343 2.86092 21.1109 3.53815 21.196L21.2449 21.1961C22.0737 21.2128 22.5628 21.0885 22.7269 20.9217C22.9089 20.7367 23.042 20.2497 23.042 19.4519V16.6863C23.042 16.1887 23.4539 15.7852 23.962 15.7852C24.4701 15.7852 24.882 16.1887 24.882 16.6863V19.4519C24.882 20.6715 24.6333 21.5812 24.0518 22.1723C23.4523 22.7816 22.4991 23.0239 21.226 22.9981L3.42967 22.9919C2.21848 22.851 1.34873 22.5176 0.833029 21.9056C0.364566 21.3498 0.102945 20.5597 0 19.4519V3.44146C0.00246199 2.25675 0.285818 1.36542 0.93628 0.807256C1.53399 0.294357 2.39371 0.0427973 3.53815 0L21.2707 0.00106318ZM24.7511 7.71868C25.9931 7.71868 27 8.70486 27 9.92136V12.9132C27 14.1297 25.9931 15.1159 24.7511 15.1159H15.7556C14.5136 15.1159 13.5067 14.1297 13.5067 12.9132V9.92136C13.5067 8.70486 14.5136 7.71868 15.7556 7.71868H24.7511ZM18.0045 10.3425C17.3835 10.3425 16.88 10.8291 16.88 11.4295C16.88 12.0298 17.3835 12.5165 18.0045 12.5165C18.6255 12.5165 19.1289 12.0298 19.1289 11.4295C19.1289 10.8291 18.6255 10.3425 18.0045 10.3425Z" fill="#1E1E1E"/>
</svg>
