<svg width="24" height="24" viewBox="0 0 24 24" fill="none" xmlns="http://www.w3.org/2000/svg">
<path fill-rule="evenodd" clip-rule="evenodd" d="M13.6643 3.69531C13.1404 2.08302 10.8595 2.08301 10.3356 3.6953L9.04153 7.67808C9.00806 7.78109 8.91208 7.85083 8.80377 7.85083H4.61603C2.92077 7.85083 2.2159 10.0202 3.5874 11.0166L6.97536 13.4781C7.06298 13.5418 7.09964 13.6546 7.06618 13.7576L5.77209 17.7404C5.24823 19.3527 7.09356 20.6934 8.46506 19.697L11.853 17.2355C11.9406 17.1718 12.0593 17.1718 12.1469 17.2355L15.5349 19.6969C16.9064 20.6934 18.7517 19.3527 18.2278 17.7404L16.9338 13.7576C16.9003 13.6546 16.937 13.5418 17.0246 13.4781L20.4125 11.0166C21.784 10.0202 21.0792 7.85083 19.3839 7.85083H15.1962C15.0879 7.85083 14.9919 7.78109 14.9584 7.67808L13.6643 3.69531Z" fill="#FAFF00"/>
</svg>
