<svg width="42" height="42" viewBox="0 0 42 42" fill="none" xmlns="http://www.w3.org/2000/svg">
<path fill-rule="evenodd" clip-rule="evenodd" d="M10.9375 21C10.9375 20.2751 11.5251 19.6875 12.25 19.6875H28.875C29.5999 19.6875 30.1875 20.2751 30.1875 21C30.1875 21.7249 29.5999 22.3125 28.875 22.3125H12.25C11.5251 22.3125 10.9375 21.7249 10.9375 21Z" fill="white"/>
<path fill-rule="evenodd" clip-rule="evenodd" d="M22.6969 13.9469C23.2095 13.4344 24.0405 13.4344 24.5531 13.9469L30.6781 20.0719C31.1906 20.5845 31.1906 21.4155 30.6781 21.9281L24.5531 28.0531C24.0405 28.5656 23.2095 28.5656 22.6969 28.0531C22.1844 27.5405 22.1844 26.7095 22.6969 26.1969L27.8938 21L22.6969 15.8031C22.1844 15.2905 22.1844 14.4595 22.6969 13.9469Z" fill="white"/>
</svg>
